<svg width="20" height="20" viewBox="0 0 20 20" fill="none" xmlns="http://www.w3.org/2000/svg">
<path d="M8.07031 8.92189C8.07031 8.92189 9.96264 8.78323 9.96264 6.59293C9.96264 4.40248 8.41448 3.3335 6.4534 3.3335H0.000244141V15.5741H6.4534C6.4534 15.5741 10.3928 15.6969 10.3928 11.9612C10.3928 11.9612 10.5646 8.92189 8.07031 8.92189ZM5.9889 5.50912H6.4534C6.4534 5.50912 7.33057 5.50912 7.33057 6.78269C7.33057 8.05612 6.8147 8.24074 6.22956 8.24074H2.84359V5.50912H5.9889ZM6.27104 13.3985H2.84359V10.1274H6.4534C6.4534 10.1274 7.76078 10.1105 7.76078 11.8084C7.76078 13.2401 6.78429 13.3877 6.27104 13.3985ZM15.6467 6.44786C10.8776 6.44786 10.8818 11.151 10.8818 11.151C10.8818 11.151 10.5546 15.8301 15.6467 15.8301C15.6467 15.8301 19.8901 16.0694 19.8901 12.5751H17.7078C17.7078 12.5751 17.7805 13.891 15.7195 13.891C15.7195 13.891 13.5368 14.0354 13.5368 11.7614H19.9628C19.9628 11.7614 20.666 6.44786 15.6467 6.44786ZM13.5129 10.1274C13.5129 10.1274 13.7793 8.2407 15.6952 8.2407C17.6106 8.2407 17.5866 10.1274 17.5866 10.1274H13.5129ZM18.095 5.56196H12.9786V4.05462H18.095V5.56196Z" fill="#4A60A1"/>
</svg>
