<svg width="40" height="40" viewBox="0 0 40 40" fill="none" xmlns="http://www.w3.org/2000/svg">
<g clip-path="url(#clip0_8_47)">
<path d="M17.1464 20C17.1464 18.4238 18.4238 17.1457 20 17.1457C21.5761 17.1457 22.8542 18.4238 22.8542 20C22.8542 21.5762 21.5761 22.8543 20 22.8543C18.4238 22.8543 17.1464 21.5762 17.1464 20ZM15.6034 20C15.6034 22.4282 17.5717 24.3965 20 24.3965C22.4282 24.3965 24.3965 22.4282 24.3965 20C24.3965 17.5718 22.4282 15.6035 20 15.6035C17.5717 15.6035 15.6034 17.5718 15.6034 20ZM23.5431 15.4292C23.5431 15.9963 24.003 16.4569 24.5708 16.4569C25.1379 16.4569 25.5985 15.9963 25.5985 15.4292C25.5985 14.8621 25.1386 14.4021 24.5708 14.4021C24.003 14.4021 23.5431 14.8621 23.5431 15.4292ZM16.5405 26.9693C15.7058 26.9313 15.2521 26.7923 14.9505 26.6747C14.5508 26.5191 14.2658 26.3337 13.9657 26.0343C13.6662 25.7348 13.4802 25.4499 13.3253 25.0501C13.2077 24.7486 13.0687 24.2949 13.0306 23.4601C12.9891 22.5576 12.9808 22.2865 12.9808 20C12.9808 17.7135 12.9898 17.4431 13.0306 16.5399C13.0687 15.7051 13.2084 15.2521 13.3253 14.9499C13.4809 14.5501 13.6662 14.2652 13.9657 13.965C14.2652 13.6656 14.5501 13.4795 14.9505 13.3246C15.2521 13.207 15.7058 13.068 16.5405 13.03C17.4431 12.9885 17.7142 12.9802 20 12.9802C22.2864 12.9802 22.5568 12.9892 23.4601 13.03C24.2948 13.068 24.7478 13.2077 25.0501 13.3246C25.4498 13.4795 25.7348 13.6656 26.0349 13.965C26.3344 14.2645 26.5197 14.5501 26.6753 14.9499C26.7929 15.2514 26.9319 15.7051 26.97 16.5399C27.0115 17.4431 27.0198 17.7135 27.0198 20C27.0198 22.2858 27.0115 22.5569 26.97 23.4601C26.9319 24.2949 26.7922 24.7486 26.6753 25.0501C26.5197 25.4499 26.3344 25.7348 26.0349 26.0343C25.7355 26.3337 25.4498 26.5191 25.0501 26.6747C24.7485 26.7923 24.2948 26.9313 23.4601 26.9693C22.5575 27.0108 22.2864 27.0191 20 27.0191C17.7142 27.0191 17.4431 27.0108 16.5405 26.9693ZM16.47 11.4898C15.5585 11.5313 14.936 11.6758 14.3917 11.8875C13.8288 12.106 13.3515 12.3992 12.875 12.8751C12.3992 13.3509 12.106 13.8281 11.8874 14.3918C11.6758 14.9361 11.5312 15.5585 11.4897 16.47C11.4475 17.383 11.4379 17.6748 11.4379 20C11.4379 22.3252 11.4475 22.617 11.4897 23.53C11.5312 24.4415 11.6758 25.0639 11.8874 25.6082C12.106 26.1712 12.3985 26.6491 12.875 27.1249C13.3509 27.6008 13.8281 27.8933 14.3917 28.1125C14.9367 28.3242 15.5585 28.4687 16.47 28.5102C17.3836 28.5517 17.6748 28.5621 20 28.5621C22.3258 28.5621 22.617 28.5524 23.5299 28.5102C24.4415 28.4687 25.0639 28.3242 25.6082 28.1125C26.1712 27.8933 26.6484 27.6008 27.1249 27.1249C27.6007 26.6491 27.8933 26.1712 28.1125 25.6082C28.3241 25.0639 28.4694 24.4415 28.5102 23.53C28.5517 22.6163 28.5614 22.3252 28.5614 20C28.5614 17.6748 28.5517 17.383 28.5102 16.47C28.4687 15.5585 28.3241 14.9361 28.1125 14.3918C27.8933 13.8288 27.6007 13.3516 27.1249 12.8751C26.6491 12.3992 26.1712 12.106 25.6089 11.8875C25.0639 11.6758 24.4415 11.5306 23.5306 11.4898C22.6177 11.4483 22.3258 11.4379 20.0007 11.4379C17.6748 11.4379 17.3836 11.4476 16.47 11.4898Z" fill="white"/>
</g>
<defs>
<clipPath id="clip0_8_47">
<rect width="17.1242" height="17.1242" fill="white" transform="translate(11.4379 11.4379)"/>
</clipPath>
</defs>
</svg>
