<svg width="40" height="40" viewBox="0 0 40 40" fill="none" xmlns="http://www.w3.org/2000/svg">
<g clip-path="url(#clip0_8_46)">
<path d="M11.4379 13.4268C11.4379 12.8503 11.6307 12.3746 12.0164 11.9998C12.4021 11.6251 12.9035 11.4377 13.5205 11.4377C14.1266 11.4377 14.617 11.6222 14.9916 11.9912C15.3773 12.3717 15.5701 12.8676 15.5701 13.4787C15.5701 14.0322 15.3828 14.4935 15.0082 14.8625C14.6225 15.243 14.1156 15.4333 13.4875 15.4333H13.4709C12.8649 15.4333 12.3745 15.243 11.9999 14.8625C11.6252 14.482 11.4379 14.0034 11.4379 13.4268ZM11.6527 28.5618V17.0073H15.3222V28.5618H11.6527ZM17.3553 28.5618H21.0248V22.11C21.0248 21.7064 21.0688 21.395 21.157 21.176C21.3113 20.7839 21.5454 20.4523 21.8595 20.1814C22.1735 19.9104 22.5675 19.7749 23.0413 19.7749C24.2755 19.7749 24.8926 20.6455 24.8926 22.3868V28.5618H28.562V21.937C28.562 20.2304 28.1764 18.936 27.405 18.0538C26.6336 17.1717 25.6144 16.7306 24.3471 16.7306C22.9256 16.7306 21.8182 17.3706 21.0248 18.6506V18.6852H21.0082L21.0248 18.6506V17.0073H17.3553C17.3773 17.3763 17.3884 18.5237 17.3884 20.4495C17.3884 22.3752 17.3773 25.0793 17.3553 28.5618Z" fill="white"/>
</g>
<defs>
<clipPath id="clip0_8_46">
<rect width="17.1242" height="17.1242" fill="white" transform="translate(11.4379 11.4379)"/>
</clipPath>
</defs>
</svg>
