<svg width="20" height="20" viewBox="0 0 20 20" fill="none" xmlns="http://www.w3.org/2000/svg">
<g clip-path="url(#clip0_43_597)">
<path d="M0 2.32323C0 1.64982 0.225232 1.09426 0.675676 0.656565C1.12612 0.218848 1.71172 0 2.43243 0C3.14029 0 3.71299 0.215474 4.15058 0.646464C4.60102 1.09091 4.82625 1.67002 4.82625 2.38383C4.82625 3.0303 4.60747 3.569 4.16988 3.99999C3.71944 4.44444 3.12741 4.66666 2.39382 4.66666H2.37452C1.66666 4.66666 1.09396 4.44444 0.656371 3.99999C0.218784 3.55555 0 2.99662 0 2.32323ZM0.250965 20V6.50504H4.53668V20H0.250965ZM6.9112 20H11.1969V12.4646C11.1969 11.9932 11.2484 11.6296 11.3514 11.3737C11.5315 10.9158 11.805 10.5286 12.1718 10.2121C12.5386 9.8956 12.9987 9.73736 13.5521 9.73736C14.9936 9.73736 15.7143 10.7542 15.7143 12.7879V20H20V12.2626C20 10.2693 19.5496 8.75756 18.6486 7.72726C17.7477 6.69696 16.5573 6.18181 15.0772 6.18181C13.417 6.18181 12.1236 6.92928 11.1969 8.42423V8.46463H11.1776L11.1969 8.42423V6.50504H6.9112C6.93693 6.93601 6.94981 8.27607 6.94981 10.5252C6.94981 12.7744 6.93693 15.9326 6.9112 20Z" fill="#4A60A1"/>
</g>
<defs>
<clipPath id="clip0_43_597">
<rect width="20" height="20" fill="white"/>
</clipPath>
</defs>
</svg>
