<svg width="23" height="23" viewBox="0 0 23 23" fill="none" xmlns="http://www.w3.org/2000/svg">
<path d="M5.69189 14.73C7.21068 14.73 8.44189 13.4988 8.44189 11.98C8.44189 10.4612 7.21068 9.22998 5.69189 9.22998C4.17311 9.22998 2.94189 10.4612 2.94189 11.98C2.94189 13.4988 4.17311 14.73 5.69189 14.73Z" stroke="#4A60A1" stroke-width="1.38209" stroke-linecap="round" stroke-linejoin="round"/>
<path d="M15.3169 20.9175C16.8357 20.9175 18.0669 19.6863 18.0669 18.1675C18.0669 16.6487 16.8357 15.4175 15.3169 15.4175C13.7981 15.4175 12.5669 16.6487 12.5669 18.1675C12.5669 19.6863 13.7981 20.9175 15.3169 20.9175Z" stroke="#4A60A1" stroke-width="1.38209" stroke-linecap="round" stroke-linejoin="round"/>
<path d="M15.3169 8.54248C16.8357 8.54248 18.0669 7.31126 18.0669 5.79248C18.0669 4.2737 16.8357 3.04248 15.3169 3.04248C13.7981 3.04248 12.5669 4.2737 12.5669 5.79248C12.5669 7.31126 13.7981 8.54248 15.3169 8.54248Z" stroke="#4A60A1" stroke-width="1.38209" stroke-linecap="round" stroke-linejoin="round"/>
<path d="M13.0052 7.2793L8.00366 10.4934" stroke="#4A60A1" stroke-width="1.38209" stroke-linecap="round" stroke-linejoin="round"/>
<path d="M8.00366 13.4666L13.0052 16.6806" stroke="#4A60A1" stroke-width="1.38209" stroke-linecap="round" stroke-linejoin="round"/>
</svg>
