<svg width="40" height="40" viewBox="0 0 40 40" fill="none" xmlns="http://www.w3.org/2000/svg">
<g clip-path="url(#clip0_8_48)">
<path d="M18.3478 19.0768C18.3478 19.0768 19.968 18.9581 19.968 17.0827C19.968 15.2072 18.6425 14.2919 16.9634 14.2919H11.4381V24.7724H16.9634C16.9634 24.7724 20.3363 24.8776 20.3363 21.6791C20.3363 21.6791 20.4834 19.0768 18.3478 19.0768ZM16.5657 16.1547H16.9634C16.9634 16.1547 17.7144 16.1547 17.7144 17.2452C17.7144 18.3355 17.2727 18.4936 16.7717 18.4936H13.8726V16.1547H16.5657ZM16.8072 22.9097H13.8726V20.1089H16.9634C16.9634 20.1089 18.0828 20.0944 18.0828 21.5482C18.0828 22.7741 17.2467 22.9004 16.8072 22.9097ZM24.8347 16.9585C20.7514 16.9585 20.755 20.9854 20.755 20.9854C20.755 20.9854 20.4749 24.9916 24.8347 24.9916C24.8347 24.9916 28.4679 25.1965 28.4679 22.2047H26.5994C26.5994 22.2047 26.6618 23.3314 24.8971 23.3314C24.8971 23.3314 23.0283 23.455 23.0283 21.508H28.5303C28.5303 21.508 29.1323 16.9585 24.8347 16.9585ZM23.0077 20.1089C23.0077 20.1089 23.2359 18.4935 24.8763 18.4935C26.5163 18.4935 26.4957 20.1089 26.4957 20.1089H23.0077ZM26.931 16.2H22.5503V14.9094H26.931V16.2Z" fill="white"/>
</g>
<defs>
<clipPath id="clip0_8_48">
<rect width="17.1242" height="17.1242" fill="white" transform="translate(11.4379 11.4379)"/>
</clipPath>
</defs>
</svg>
