<svg width="23" height="23" viewBox="0 0 23 23" fill="none" xmlns="http://www.w3.org/2000/svg">
<path d="M11.6061 19.5425C11.6061 19.5425 3.01233 14.73 3.01233 8.88624C3.01233 7.85317 3.37025 6.85201 4.02521 6.0531C4.68016 5.25419 5.59168 4.70687 6.60469 4.50427C7.61769 4.30167 8.6696 4.4563 9.58145 4.94185C10.4933 5.42741 11.2087 6.21389 11.6061 7.16749V7.16749C12.0034 6.21389 12.7189 5.42741 13.6307 4.94185C14.5426 4.4563 15.5945 4.30167 16.6075 4.50427C17.6205 4.70687 18.532 5.25419 19.187 6.0531C19.8419 6.85201 20.1998 7.85317 20.1998 8.88624C20.1998 14.73 11.6061 19.5425 11.6061 19.5425Z" stroke="#4A60A1" stroke-width="1.38209" stroke-linecap="round" stroke-linejoin="round"/>
</svg>
