<svg width="40" height="40" viewBox="0 0 40 40" fill="none" xmlns="http://www.w3.org/2000/svg">
<g clip-path="url(#clip0_8_45)">
<path d="M11.4379 20C11.4379 18.4474 11.8203 17.0147 12.5852 15.7018C13.3501 14.389 14.3889 13.3501 15.7018 12.5852C17.0146 11.8203 18.4474 11.4379 20 11.4379C21.5526 11.4379 22.9853 11.8203 24.2981 12.5852C25.611 13.3501 26.6499 14.389 27.4147 15.7018C28.1796 17.0147 28.562 18.4474 28.562 20C28.562 21.5526 28.1796 22.9853 27.4147 24.2982C26.6499 25.611 25.611 26.6499 24.2981 27.4148C22.9853 28.1797 21.5526 28.5621 20 28.5621C18.4474 28.5621 17.0146 28.1797 15.7018 27.4148C14.3889 26.6499 13.3501 25.611 12.5852 24.2982C11.8203 22.9853 11.4379 21.5526 11.4379 20ZM12.8592 20C12.8592 21.7809 13.4585 23.3506 14.6572 24.7092C15.2052 23.636 16.0728 22.6143 17.2601 21.6439C18.4474 20.6735 19.6061 20.0628 20.7363 19.8116C20.5651 19.4121 20.3995 19.0525 20.2397 18.7328C18.2761 19.3607 16.1527 19.6746 13.8695 19.6746C13.4243 19.6746 13.0932 19.6689 12.8763 19.6575C12.8763 19.7032 12.8735 19.7603 12.8677 19.8288C12.862 19.8973 12.8592 19.9543 12.8592 20ZM13.0818 18.2362C13.3329 18.259 13.704 18.2705 14.1949 18.2705C16.1014 18.2705 17.9108 18.0136 19.6232 17.4999C18.7556 15.9587 17.8024 14.6744 16.7635 13.6469C15.8616 14.1036 15.0882 14.7372 14.4432 15.5477C13.7982 16.3583 13.3444 17.2544 13.0818 18.2362ZM15.6333 25.6339C16.9233 26.6385 18.3789 27.1408 20 27.1408C20.8448 27.1408 21.6838 26.981 22.5172 26.6613C22.2889 24.7092 21.8437 22.8198 21.1815 20.9932C20.1312 21.2215 19.0724 21.798 18.005 22.7227C16.9376 23.6475 16.147 24.6178 15.6333 25.6339ZM18.2533 13.099C19.2579 14.1378 20.1883 15.4335 21.0445 16.9861C22.5971 16.3354 23.7673 15.5078 24.555 14.5031C23.2307 13.4072 21.7124 12.8592 20 12.8592C19.4177 12.8592 18.8355 12.9391 18.2533 13.099ZM21.661 18.202C21.8322 18.5673 22.0263 19.0296 22.2432 19.589C23.088 19.5091 24.007 19.4692 25.0002 19.4692C25.708 19.4692 26.4101 19.4863 27.1065 19.5205C27.0152 17.9679 26.4558 16.5866 25.4283 15.3765C24.6863 16.4838 23.4305 17.4257 21.661 18.202ZM22.6713 20.7877C23.2536 22.4773 23.6474 24.2125 23.8529 25.9935C24.7548 25.4112 25.4911 24.6635 26.0619 23.7502C26.6327 22.8369 26.9752 21.8494 27.0894 20.7877C26.256 20.7306 25.4968 20.7021 24.8119 20.7021C24.184 20.7021 23.4705 20.7306 22.6713 20.7877Z" fill="white"/>
</g>
<defs>
<clipPath id="clip0_8_45">
<rect width="17.1242" height="17.1242" fill="white" transform="translate(11.4379 11.4379)"/>
</clipPath>
</defs>
</svg>
