<?xml version="1.0" standalone="no"?>
<!DOCTYPE svg PUBLIC "-//W3C//DTD SVG 20010904//EN"
 "http://www.w3.org/TR/2001/REC-SVG-20010904/DTD/svg10.dtd">
<svg version="1.0" xmlns="http://www.w3.org/2000/svg"
 width="700.000000pt" height="700.000000pt" viewBox="0 0 700.000000 700.000000"
 preserveAspectRatio="xMidYMid meet">
<metadata>
Created by potrace 1.14, written by Peter Selinger 2001-2017
</metadata>
<g transform="translate(0.000000,700.000000) scale(0.100000,-0.100000)"
fill="#000000" stroke="none">
<path d="M3395 6254 c-97 -25 -146 -59 -324 -223 -52 -47 -99 -90 -105 -96 -7
-5 -36 -32 -66 -60 -111 -101 -243 -220 -260 -235 -9 -8 -61 -55 -116 -105
-54 -49 -154 -141 -223 -204 -70 -63 -148 -135 -176 -160 -27 -25 -93 -84
-145 -131 -52 -47 -101 -92 -110 -100 -9 -8 -54 -50 -102 -93 -120 -109 -138
-125 -183 -166 -37 -35 -153 -140 -374 -341 -52 -47 -103 -93 -115 -103 -120
-104 -194 -210 -212 -307 -4 -19 -8 -613 -9 -1320 -2 -707 -3 -1288 -4 -1291
0 -4 -109 -7 -240 -7 -262 -1 -279 -4 -343 -61 -38 -33 -68 -102 -68 -155 0
-83 47 -158 124 -199 l41 -21 3115 -1 c2900 0 3117 1 3150 17 175 84 170 331
-9 405 -27 12 -89 15 -276 17 l-240 1 -1 1295 c0 1199 -1 1299 -17 1353 -33
109 -74 158 -311 372 -49 44 -104 94 -122 110 -18 17 -65 60 -106 97 -40 36
-85 76 -99 89 -32 30 -195 178 -268 244 -43 39 -180 164 -297 270 -6 6 -53 48
-104 95 -52 47 -106 96 -121 110 -33 31 -75 69 -204 185 -55 49 -109 99 -120
110 -11 11 -41 38 -65 59 -25 21 -67 60 -95 85 -27 26 -97 89 -155 141 -58 52
-127 116 -155 141 -131 122 -196 164 -285 184 -57 13 -151 12 -205 -1z m221
-531 c18 -15 90 -81 232 -210 126 -115 198 -181 216 -196 22 -19 147 -133 245
-223 31 -28 110 -100 176 -160 66 -60 125 -113 131 -119 6 -5 51 -46 99 -90
49 -44 99 -89 111 -100 12 -11 41 -38 65 -60 24 -21 91 -82 149 -135 57 -52
110 -99 116 -105 6 -5 49 -45 95 -87 46 -42 94 -85 105 -95 35 -30 215 -194
276 -251 l56 -54 0 -1263 -1 -1264 -654 1 c-359 0 -654 3 -654 6 -1 4 -2 311
-4 682 -1 371 -5 690 -9 708 -10 52 -46 139 -61 152 -8 7 -15 17 -15 23 0 14
-74 83 -121 113 -21 13 -66 33 -101 45 -61 21 -77 21 -558 21 -330 0 -511 -4
-544 -11 -148 -35 -265 -141 -319 -291 -20 -53 -20 -80 -21 -750 l-1 -695
-656 -1 -656 -1 0 1261 -1 1261 62 60 c34 33 105 98 156 145 156 140 350 317
530 481 69 63 166 151 215 195 50 45 102 93 116 105 14 13 68 62 119 109 52
47 106 96 121 110 35 32 82 75 199 180 52 47 102 92 110 100 8 8 58 53 110
100 52 47 102 92 110 100 8 8 40 37 70 64 30 27 80 72 110 100 30 28 79 73
108 99 l52 48 48 -45 c26 -24 56 -53 68 -63z m310 -3102 c8 -1 11 -177 10
-653 l-1 -653 -436 -1 -436 -1 0 656 0 656 426 -1 c234 -1 431 -2 437 -3z"/>
</g>
</svg>
